# xmcd
#
# Track frame offsets:
#	150
#	11799
#	27181
#	45485
#	60115
#	74758
#	89036
#	109089
#	125570
#	144462
#	158367
#	188668
#
# Disc length: 2714 seconds
#
# Revision: 1
# Processed by: cddbd v1.5.2PL0 Copyright (c) Steve Scherf et al.
# Submitted via: EasyCDDAExtractor 12.0.0.1
#
DISCID=9c0a980c
DTITLE=James Blundell - Portrait Of A Man
DYEAR=2009
DGENRE=Country
TTITLE0=Good Wood
TTITLE1=Running Down The Sun
TTITLE2=Shearer
TTITLE3=Mr Ritchie
TTITLE4=Bound To Freeze
TTITLE5=Queensland Calling
TTITLE6=Five To Five
TTITLE7=Portrait Of A Man
TTITLE8=Moving On (duet with Mick Thomas)
TTITLE9=Nothings Going To Get Me Down
TTITLE10=Riding Into Town
TTITLE11=So Good To Meet You
EXTD=
EXTT0=
EXTT1=
EXTT2=
EXTT3=
EXTT4=
EXTT5=
EXTT6=
EXTT7=
EXTT8=
EXTT9=
EXTT10=
EXTT11=
PLAYORDER=
